<?xml version="1.0" encoding="UTF-8"?><svg id="Layer_1" xmlns="http://www.w3.org/2000/svg" viewBox="0 0 360 360"><defs><style>.cls-1{fill:none;stroke:#231f20;stroke-miterlimit:10;stroke-width:.25px;}.cls-2{stroke-width:0px;}</style></defs><path class="cls-2" d="m331.66,75.38c1.74,3.02,2.64,6.17,2.64,9.39,0,25.91-58.58,46.94-130.83,46.94s-130.83-21.03-130.83-46.94c0-23.25,47.01-42.5,108.74-46.27,67.78.8,125.42,15.79,150.28,36.88Zm-3.95,7.68c0-19.26-47.84-34.85-106.84-34.85s-106.87,15.59-106.87,34.85,47.84,34.82,106.87,34.82,106.84-15.59,106.84-34.82Z"/><path class="cls-2" d="m199.04,145.37c55.72,0,104.94-10,134.49-25.24-24.34,22.54-85.88,38.55-157.93,38.55-93.43,0-169.15-26.91-169.15-60.12,0-18.1,22.51-34.34,58.16-45.37-18.39,9.48-29.19,21.03-29.19,33.47,0,32.41,73.27,58.71,163.62,58.71Z"/><path class="cls-2" d="m203.47,37.82c63.27,0,116.07,16.11,128.19,37.55-24.85-21.09-82.5-36.07-150.28-36.88,7.17-.45,14.56-.68,22.09-.68Z"/><path class="cls-1" d="m331.66,75.38c1.74,3.02,2.64,6.17,2.64,9.39,0,25.91-58.58,46.94-130.83,46.94s-130.83-21.03-130.83-46.94c0-23.25,47.01-42.5,108.74-46.27,7.17-.45,14.56-.68,22.09-.68,63.27,0,116.07,16.11,128.19,37.55Z"/><path class="cls-1" d="m327.71,83.06c0,19.23-47.84,34.82-106.84,34.82s-106.87-15.59-106.87-34.82,47.84-34.85,106.87-34.85,106.84,15.59,106.84,34.85Z"/><path class="cls-2" d="m300.24,152.62c13.95,5.94,22.19,13.26,22.19,21.19,0,19.79-51.26,35.83-114.46,35.83s-114.46-16.04-114.46-35.83v-.11c18.91,10.71,55.15,17.95,96.75,17.95,61.16,0,110.72-15.65,110.72-34.98,0-1.36-.24-2.7-.74-4.04Z"/><path class="cls-2" d="m250.42,245.68c6.11,3.58,9.65,7.82,9.65,12.38,0,12.75-27.66,23.07-61.77,23.07s-59.98-9.67-61.67-21.85c8.43,8.6,30.35,14.72,56.04,14.72,33,0,59.75-10.09,59.75-22.53,0-2-.69-3.94-2-5.79Z"/><path class="cls-2" d="m134.08,209.82c-10.97,3.39-17.54,7.69-17.54,12.37,0,10.94,35.8,19.8,79.95,19.8,40.57,0,74.08-7.49,79.25-17.19-13.19,5.95-38.55,9.98-67.65,9.98-42.72,0-77.33-8.66-77.33-19.34,0-1.96,1.15-3.84,3.33-5.62Z"/><path class="cls-2" d="m172.36,318.92c.28-1.18.42-2.37.42-3.58,0-11.81-13.69-22.28-34.82-28.82,28.59,2.89,49.06,10.67,49.06,19.82,0,4.71-5.45,9.07-14.66,12.59Z"/></svg>