<?xml version="1.0" encoding="UTF-8"?>
<svg width="193px" height="62px" viewBox="0 0 193 62" version="1.1" xmlns="http://www.w3.org/2000/svg" xmlns:xlink="http://www.w3.org/1999/xlink">
    <title>colimit-logo-landscape</title>
    <g id="assets" stroke="none" stroke-width="1" fill="none" fill-rule="evenodd">
        <path d="M0.60318667,24.4799902 C1.3503138,48.2093097 26.5069919,54.9990418 39.3125314,42.453981 L49.9813541,53.5855114 C27.3290502,74.3754772 -4.80496875,53.5855114 0.60318667,24.4799902 Z M35.3003115,0.540141859 C5.9713673,2.29409381 6.57887924,43.7089367 29.0341394,45.9615205 C16.6510611,49.2636209 3.66990172,40.9005921 2.64294197,25.5729253 C1.61598223,10.2452585 17.6714339,-2.85247452 35.3003115,0.540141859 Z M29.6886124,22.3393581 C34.2467979,22.3393581 37.9419373,26.1939481 37.9419373,30.9488258 C37.9419373,35.7037036 34.2467979,39.5582935 29.6886124,39.5582935 C25.1304269,39.5582935 21.4352874,35.7037036 21.4352874,30.9488258 C21.4352874,26.1939481 25.1304269,22.3393581 29.6886124,22.3393581 Z M15.261652,30.665236 C9.81335133,8.40822262 34.5714737,-6.1400881 49.9146814,8.40822262 L39.1295818,19.6753988 C30.1189758,11.6880793 16.0505499,17.2910374 15.261652,30.665236 Z M75.4758432,42.32 L74.1003563,42.32 C70.4537167,42.32 67.7560565,41.712 66.0073755,40.496 C64.2586945,39.28 63.384354,37.2106667 63.384354,34.288 L63.384354,32.784 C63.384354,29.8613333 64.2586945,27.7866667 66.0073755,26.56 C67.7560565,25.3333333 70.4537167,24.72 74.1003563,24.72 L75.4758432,24.72 C81.8521312,24.72 85.3814812,26.6613333 86.0638933,30.544 L81.4895997,30.544 C80.999116,29.7333333 80.2687219,29.1573333 79.2984172,28.816 C78.3281125,28.4746667 76.8939808,28.304 74.9960222,28.304 C72.4369769,28.304 70.6029944,28.6186667 69.4940747,29.248 C68.3851551,29.8773333 67.8306953,31.1413333 67.8306953,33.04 L67.8306953,34 C67.8306953,35.8986667 68.3851551,37.1626667 69.4940747,37.792 C70.6029944,38.4213333 72.4369769,38.736 74.9960222,38.736 C76.8939808,38.736 78.3281125,38.5653333 79.2984172,38.224 C80.2687219,37.8826667 80.999116,37.3066667 81.4895997,36.496 L86.0638933,36.496 C85.3814812,40.3786667 81.8521312,42.32 75.4758432,42.32 Z M101.354189,42.32 L99.370929,42.32 C95.7456148,42.32 93.0426231,41.7066667 91.2619541,40.48 C89.481285,39.2533333 88.5909505,37.1893333 88.5909505,34.288 L88.5909505,32.784 C88.5909505,29.8613333 89.481285,27.7866667 91.2619541,26.56 C93.0426231,25.3333333 95.7456148,24.72 99.370929,24.72 L101.354189,24.72 C105.000829,24.72 107.714483,25.3333333 109.495152,26.56 C111.275821,27.7866667 112.166156,29.8613333 112.166156,32.784 L112.166156,34.288 C112.166156,37.1893333 111.275821,39.2533333 109.495152,40.48 C107.714483,41.7066667 105.000829,42.32 101.354189,42.32 Z M100.394547,38.736 C102.996243,38.736 104.867545,38.4213333 106.008453,37.792 C107.149361,37.1626667 107.719814,35.8986667 107.719814,34 L107.719814,33.04 C107.719814,31.1413333 107.149361,29.8773333 106.008453,29.248 C104.867545,28.6186667 102.996243,28.304 100.394547,28.304 C97.7715256,28.304 95.8895611,28.6186667 94.7486534,29.248 C93.6077456,29.8773333 93.0372918,31.1413333 93.0372918,33.04 L93.0372918,34 C93.0372918,35.8986667 93.6077456,37.1626667 94.7486534,37.792 C95.8895611,38.4213333 97.7715256,38.736 100.394547,38.736 Z M119.971244,19.6 L119.971244,42 L115.492915,42 L115.492915,19.6 L119.971244,19.6 Z M123.905776,19.6 L128.384105,19.6 L128.384105,22.768 L123.905776,22.768 L123.905776,19.6 Z M123.905776,25.04 L128.384105,25.04 L128.384105,42 L123.905776,42 L123.905776,25.04 Z M166.833761,31.664 L166.833761,42 L162.355432,42 L162.355432,32.4 C162.355432,30.7786667 161.934256,29.6906667 161.091904,29.136 C160.249551,28.5813333 159.060661,28.304 157.525234,28.304 C155.669926,28.304 154.251789,28.6826667 153.270821,29.44 C152.289854,30.1973333 151.79937,31.4933333 151.79937,33.328 L151.79937,42 L147.353029,42 L147.353029,32.4 C147.353029,30.7786667 146.937184,29.6906667 146.105494,29.136 C145.273805,28.5813333 144.068921,28.304 142.490843,28.304 C140.635535,28.304 139.222729,28.6826667 138.252424,29.44 C137.282119,30.1973333 136.796967,31.4933333 136.796967,33.328 L136.796967,42 L132.318638,42 L132.318638,25.04 L136.796967,25.04 L136.796967,28.08 L136.988895,28.08 C138.055164,25.84 140.368968,24.72 143.930306,24.72 C145.636336,24.72 147.11845,24.9546667 148.376647,25.424 C149.677495,25.8933333 150.615812,26.8106667 151.191597,28.176 L151.415513,28.176 C152.545758,25.872 155.00884,24.72 158.804757,24.72 C160.041629,24.72 161.11856,24.8213333 162.035552,25.024 C162.952543,25.2266667 163.789564,25.5733333 164.546615,26.064 C165.303666,26.5546667 165.874119,27.2693333 166.257976,28.208 C166.641833,29.1466667 166.833761,30.2986667 166.833761,31.664 Z M170.480401,19.6 L174.95873,19.6 L174.95873,22.768 L170.480401,22.768 L170.480401,19.6 Z M170.480401,25.04 L174.95873,25.04 L174.95873,42 L170.480401,42 L170.480401,25.04 Z M182.25201,28.4 L177.549764,28.4 L177.549764,25.04 L182.25201,25.04 L182.25201,19.6 L186.698351,19.6 L186.698351,25.04 L193,25.04 L193,28.4 L186.698351,28.4 L186.698351,34.896 C186.698351,36.4533333 187.044888,37.4666667 187.737963,37.936 C188.431038,38.4053333 189.673241,38.64 191.464573,38.64 L193,38.64 L193,42 L190.057098,42 C187.178172,42 185.157592,41.52 183.995359,40.56 C182.833126,39.6 182.25201,37.9146667 182.25201,35.504 L182.25201,28.4 Z" id="logo-landscape" fill="#FFFFFF"></path>
    </g>
</svg>