<?xml version="1.0" encoding="UTF-8"?>
<svg width="32px" height="32px" viewBox="0 0 32 32" version="1.1" xmlns="http://www.w3.org/2000/svg" xmlns:xlink="http://www.w3.org/1999/xlink">
    <title>favicon-32x32</title>
    <defs>
        <linearGradient x1="50%" y1="0%" x2="50%" y2="100%" id="linearGradient-1">
            <stop stop-color="#DC41E6" offset="0%"></stop>
            <stop stop-color="#6B1582" offset="100%"></stop>
        </linearGradient>
    </defs>
    <g id="assets" stroke="none" stroke-width="1" fill="none" fill-rule="evenodd">
        <path d="M3.31377408,12.6348336 C3.70242512,24.8822244 16.7887779,28.3866022 23.4501425,21.9117321 L29,27.6570381 C17.2164077,38.3873431 0.500484136,27.6570381 3.31377408,12.6348336 Z M21.3630099,0.278782895 C6.10626938,1.18404842 6.42229344,22.5594512 18.1033848,23.7220751 C11.6617819,25.426385 4.90906081,21.109983 4.37484253,13.1989292 C3.84062424,5.28787536 12.1925737,-1.47224491 21.3630099,0.278782895 Z M18.4438377,11.5299913 C20.8149784,11.5299913 22.7371677,13.5194571 22.7371677,15.9735875 C22.7371677,18.427718 20.8149784,20.4171838 18.4438377,20.4171838 C16.072697,20.4171838 14.1505077,18.427718 14.1505077,15.9735875 C14.1505077,13.5194571 16.072697,11.5299913 18.4438377,11.5299913 Z M10.9390196,15.8272186 C8.10484638,4.3397278 20.9838728,-3.16907773 28.9653172,4.3397278 L23.3549733,10.1550445 C18.6677102,6.03255705 11.3493996,8.92440641 10.9390196,15.8272186 Z" id="Combined-Shape" fill="url(#linearGradient-1)"></path>
    </g>
</svg>