<?xml version="1.0" encoding="UTF-8"?>
<svg width="16px" height="16px" viewBox="0 0 16 16" version="1.1" xmlns="http://www.w3.org/2000/svg" xmlns:xlink="http://www.w3.org/1999/xlink">
    <title>favicon-16x16</title>
    <defs>
        <linearGradient x1="50%" y1="0%" x2="50%" y2="100%" id="linearGradient-1">
            <stop stop-color="#DC41E6" offset="0%"></stop>
            <stop stop-color="#6B1582" offset="100%"></stop>
        </linearGradient>
    </defs>
    <g id="assets" stroke="none" stroke-width="1" fill="none" fill-rule="evenodd">
        <path d="M1.15688704,6.31741682 C1.35121256,12.4411122 7.89438895,14.1933011 11.2250713,10.9558661 L14,13.8285191 C8.10820383,19.1936715 -0.249757932,13.8285191 1.15688704,6.31741682 Z M10.1815049,0.139391447 C2.55313469,0.592024209 2.71114672,11.2797256 8.55169241,11.8610376 C5.33089096,12.7131925 1.95453041,10.5549915 1.68742126,6.59946459 C1.42031212,2.64393768 5.59628684,-0.736122457 10.1815049,0.139391447 Z M8.72191885,5.76499564 C9.90748921,5.76499564 10.8685839,6.75972854 10.8685839,7.98679376 C10.8685839,9.21385898 9.90748921,10.2085919 8.72191885,10.2085919 C7.5363485,10.2085919 6.57525384,9.21385898 6.57525384,7.98679376 C6.57525384,6.75972854 7.5363485,5.76499564 8.72191885,5.76499564 Z M4.96950981,7.91360928 C3.55242319,2.1698639 9.99193641,-1.58453886 13.9826586,2.1698639 L11.1774866,5.07752226 C8.8338551,3.01627852 5.17469979,4.4622032 4.96950981,7.91360928 Z" id="Combined-Shape" fill="url(#linearGradient-1)"></path>
    </g>
</svg>